<?xml version="1.0" encoding="UTF-8" standalone="no"?>
<!-- Created with Inkscape (http://www.inkscape.org/) -->

<svg
   version="1.1"
   id="svg1"
   width="336.80856"
   height="336.87021"
   viewBox="0 0 336.80858 336.87021"
   sodipodi:docname="Openwritter-logo-transparent.svg"
   xml:space="preserve"
   inkscape:version="1.4.2 (f4327f4, 2025-05-13)"
   xmlns:inkscape="http://www.inkscape.org/namespaces/inkscape"
   xmlns:sodipodi="http://sodipodi.sourceforge.net/DTD/sodipodi-0.dtd"
   xmlns="http://www.w3.org/2000/svg"
   xmlns:svg="http://www.w3.org/2000/svg"><defs
     id="defs1" /><sodipodi:namedview
     id="namedview1"
     pagecolor="#ffffff"
     bordercolor="#000000"
     borderopacity="0.25"
     inkscape:showpageshadow="2"
     inkscape:pageopacity="0.0"
     inkscape:pagecheckerboard="0"
     inkscape:deskcolor="#adadad"
     inkscape:zoom="0.36439569"
     inkscape:cx="548.85391"
     inkscape:cy="665.48536"
     inkscape:window-width="1920"
     inkscape:window-height="991"
     inkscape:window-x="-9"
     inkscape:window-y="-9"
     inkscape:window-maximized="1"
     inkscape:current-layer="g1"><inkscape:page
       x="0"
       y="0"
       width="336.80859"
       height="336.87021"
       id="page2"
       margin="0"
       bleed="0" /></sodipodi:namedview><g
     inkscape:groupmode="layer"
     inkscape:label="Image"
     id="g1"
     transform="translate(-45.860681,-201.87943)"><g
       id="g2"
       transform="translate(-577.89262,-278.74126)"
       style="fill:#7869bc;fill-opacity:1"
       inkscape:export-filename="logo.png"
       inkscape:export-xdpi="145.93452"
       inkscape:export-ydpi="145.93452"><path
         style="fill:#7869bc;fill-opacity:1"
         d="m 676.43826,815.83338 c -4.15355,-2.60964 -6.29855,-6.88148 -6.29855,-12.54376 0,-4.1006 0.97563,-5.9889 10.01507,-19.38381 22.84218,-33.84822 48.99489,-61.56077 73.73949,-78.13759 9.93023,-6.65243 29.74328,-16.29898 38.74544,-18.86433 14.42402,-4.11042 46.3771,-7.5303 66.5,-7.11737 9.77781,0.20064 10.00788,0.14202 6.62813,-1.68886 -14.44772,-7.82664 -47.35091,-12.24532 -70.22751,-9.43108 -11.77952,1.4491 -26.16305,4.93325 -37.90352,9.18145 -14.2531,5.15737 -34.57467,18.61021 -50.22691,33.25012 -5.85077,5.47236 -6.27019,5.69427 -6.27019,3.31758 0,-6.06271 6.3224,-26.68836 11.46282,-37.3953 6.60286,-13.75304 12.13789,-21.63309 21.69955,-30.89299 12.54165,-12.14582 26.12363,-19.49995 44.53791,-24.11556 9.82377,-2.46237 12.47153,-2.70495 29.29972,-2.68429 19.7513,0.0243 31.18251,1.41061 49.22169,5.96952 30.3168,7.66175 62.87546,23.59147 90.33306,44.19653 6.78687,5.09308 12.55862,9.61426 12.82611,10.04708 1.03253,1.67066 -17.51019,24.34691 -30.86955,37.75097 -27.14718,27.23803 -52.45047,42.99052 -81.51131,50.74462 -11.15149,2.97548 -12.13641,3.06671 -32.5,3.01066 -30.70803,-0.0845 -57.80409,-4.70515 -80.1079,-13.66059 l -8.33024,-3.34476 -2.3695,3.59593 c -2.17495,3.30068 -18.84491,33.76198 -26.82915,49.02535 -1.84977,3.53617 -4.56719,7.3115 -6.03872,8.38963 -3.95671,2.89891 -11.5472,3.28066 -15.52594,0.78085 z m -2.8909,-140.21006 c -18.83849,-9.97525 -35.19171,-26.8468 -42.88628,-44.24559 -4.89444,-11.06721 -6.82943,-21.05782 -6.90359,-35.64424 -0.0711,-13.98283 0.72871,-19.39699 5.02263,-34 3.37816,-11.48861 14.57287,-34.22697 23.14939,-47.02036 6.77797,-10.11053 20.33146,-27.02507 25.46991,-31.78604 l 2.48927,-2.30641 4.52063,5.30641 c 7.53998,8.85058 20.33491,27.30238 26.29202,37.91621 7.67397,13.67276 12.93274,26.63323 16.04731,39.54932 2.40246,9.96292 2.57467,12.09613 2.12652,26.34087 -0.52898,16.81353 -2.0464,24.40922 -7.73089,38.69808 -4.00155,10.05853 -12.32177,23.96013 -19.57136,32.70025 l -5.72189,6.89832 -1.4516,-2.77049 c -0.79839,-1.52376 -3.40494,-8.70646 -5.79234,-15.96156 -7.62297,-23.16545 -12.40024,-50.98222 -14.05598,-81.84416 -0.37709,-7.02875 -0.88336,-12.58182 -1.12504,-12.34013 -0.24168,0.24168 -1.31083,3.74248 -2.37589,7.77955 -9.318,35.31965 -7.71131,65.93869 5.5027,104.86619 1.93662,5.70514 3.38185,10.51226 3.21163,10.68248 -0.17022,0.17022 -2.96793,-1.09819 -6.21715,-2.8187 z"
         id="path2" /></g></g></svg>
